<svg xmlns="http://www.w3.org/2000/svg" width="40" height="40"><path style="stroke:none;fill-rule:nonzero;fill:#000;fill-opacity:1" d="M37.5 0c.715 0 1.313.238 1.79.71.472.478.71 1.075.71 1.79 0 .703-.242 1.297-.723 1.777L23.535 20l15.742 15.723c.48.48.723 1.074.723 1.777 0 .715-.238 1.313-.71 1.79-.477.472-1.075.71-1.79.71-.703 0-1.297-.242-1.777-.723L20 23.535 4.277 39.277c-.48.48-1.074.723-1.777.723-.715 0-1.313-.238-1.79-.71C.239 38.812 0 38.214 0 37.5c0-.703.242-1.297.723-1.777L16.465 20 .723 4.277C.243 3.797 0 3.203 0 2.5 0 1.785.238 1.187.71.71 1.189.239 1.786 0 2.5 0c.703 0 1.297.242 1.777.723L20 16.465 35.723.723C36.203.243 36.797 0 37.5 0zm0 0"/></svg>